<svg width="117" height="22" viewBox="0 0 117 22" fill="none" xmlns="http://www.w3.org/2000/svg">
<path d="M13.6516 16.6776C13.5273 11.4684 17.265 10.0862 17.265 10.0862C17.4297 17.3757 13.6516 18.3419 13.6516 18.3614M10.263 9.38805C10.1161 10.076 9.76532 10.7036 9.25635 11.1892C8.74584 10.7042 8.39354 10.0765 8.2455 9.38805C7.928 9.87122 7.49593 10.2684 6.98778 10.5441C6.47963 10.8199 5.91117 10.9657 5.33303 10.9686C3.40348 10.9686 1.78109 9.32662 1.78109 7.29236C1.78758 6.88077 1.85679 6.47257 1.98633 6.08185C2.1092 5.5471 2.84919 4.19139 2.84919 4.19139C3.32082 3.4389 3.61538 2.58911 3.71064 1.70616C4.43148 2.1645 5.08191 2.7251 5.64159 3.37043C5.68886 3.41101 5.73022 3.458 5.76445 3.51005C6.73062 3.28386 9.67381 2.75052 12.6449 3.61197C12.75 3.54305 12.8465 3.46197 12.9325 3.37043C13.4762 2.70977 14.1288 2.14691 14.8621 1.70616C14.9555 2.58974 15.2507 3.44003 15.7249 4.19139C15.7249 4.19139 16.4845 5.56805 16.5878 6.08185C16.7253 6.47691 16.7674 6.89887 16.7107 7.3133C16.7107 9.32662 15.1302 10.9895 13.1587 10.9895C12.5841 10.9695 12.0222 10.814 11.519 10.5357C11.0158 10.2574 10.5855 9.86416 10.263 9.38805ZM12.624 14.8919C12.4531 14.7237 12.3191 14.5218 12.2306 14.2989C12.1422 14.0761 12.1011 13.8372 12.1102 13.5976L12.603 14.5009L13.1378 13.5976C13.1132 14.0737 12.9326 14.5285 12.624 14.8919ZM12.624 18.7314C12.4532 18.5635 12.3193 18.3618 12.2308 18.1392C12.1423 17.9165 12.1012 17.6779 12.1102 17.4385L12.603 18.3209L13.1378 17.4385C13.1587 17.4385 13.1168 18.1562 12.624 18.7314ZM11.2892 15.5076L11.7821 16.4109L12.3168 15.5076C12.2718 15.979 12.0936 16.4279 11.803 16.8019C11.6272 16.6374 11.49 16.436 11.4012 16.2123C11.3123 15.9885 11.2741 15.7479 11.2892 15.5076ZM11.0016 18.7286C10.8308 18.5607 10.6969 18.359 10.6084 18.1364C10.5199 17.9137 10.4789 17.6751 10.4878 17.4358L10.9807 18.3182L11.5154 17.4358C11.4819 17.9095 11.3024 18.3612 11.0016 18.7286ZM10.4878 13.5767L10.9807 14.48L11.5154 13.5767C11.4704 14.0481 11.2922 14.497 11.0016 14.8709C10.8255 14.7067 10.688 14.5054 10.5992 14.2816C10.5103 14.0577 10.4723 13.817 10.4878 13.5767ZM9.72827 15.5076L10.2211 16.4109L10.7587 15.5076C10.7136 15.979 10.5354 16.4279 10.2449 16.8019C10.0691 16.6374 9.93183 16.436 9.843 16.2123C9.75417 15.9885 9.71594 15.7479 9.73106 15.5076M9.36246 18.7286C9.19169 18.5607 9.05789 18.359 8.96965 18.1363C8.88141 17.9137 8.84068 17.6751 8.85006 17.4358L9.34291 18.3182L9.87626 17.4358C9.83188 17.9069 9.65359 18.3555 9.36246 18.7286ZM8.84587 13.5767L9.33873 14.48L9.87207 13.5767C9.82901 14.0478 9.6522 14.4969 9.36246 14.8709C9.18637 14.7067 9.04902 14.5054 8.96039 14.2815C8.87177 14.0577 8.83408 13.8169 8.85006 13.5767M8.06958 15.5076L8.56244 16.4109L9.09579 15.5076C9.05169 15.979 8.87392 16.428 8.58338 16.8019C8.40735 16.6376 8.26996 16.4363 8.18111 16.2125C8.09226 15.9886 8.05417 15.7479 8.06958 15.5076ZM7.73589 18.7286C7.56511 18.5607 7.43132 18.359 7.34308 18.1363C7.25484 17.9137 7.2141 17.6751 7.22348 17.4358L7.71634 18.3182L8.2455 17.4385C8.20182 17.9083 8.02503 18.3558 7.73589 18.7286ZM7.22348 13.5767L7.71634 14.48L8.2455 13.5767C8.20122 14.0483 8.02294 14.4974 7.7317 14.8709C7.5556 14.7067 7.41826 14.5054 7.32963 14.2815C7.241 14.0577 7.20331 13.8169 7.21929 13.5767M6.41787 15.5076L6.91073 16.4109L7.44548 15.5076C7.40044 15.979 7.22224 16.4279 6.93168 16.8019C6.75588 16.6374 6.61865 16.436 6.52982 16.2123C6.44099 15.9885 6.40276 15.7479 6.41787 15.5076ZM5.58015 13.5767L6.07301 14.48L6.60636 13.5767C6.56226 14.0481 6.38449 14.4971 6.09396 14.8709C5.92586 14.7007 5.79374 14.4984 5.70547 14.276C5.6172 14.0537 5.57458 13.8158 5.58015 13.5767ZM6.1135 18.7286C5.94273 18.5607 5.80893 18.359 5.72069 18.1363C5.63245 17.9137 5.59172 17.6751 5.6011 17.4358L6.09396 18.3182L6.62731 17.4358C6.58292 17.9069 6.40464 18.3555 6.1135 18.7286ZM4.903 18.3586C4.92254 18.3391 1.14443 17.3729 1.28823 10.0834C1.28823 10.0834 5.02586 11.4586 4.903 16.6748M16.6702 3.53239C15.3354 1.43809 16.1564 0 16.1564 0C14.6987 0.0404898 13.343 1.12953 12.4397 2.0943C11.3957 1.90851 10.3377 1.81229 9.27729 1.80668C8.21607 1.80439 7.15692 1.90067 6.1135 2.0943C5.2311 1.14907 3.87958 0.0195468 2.39682 0C2.39682 0 3.21778 1.45763 1.88302 3.53239C0.0972752 6.34852 -1.79318 16.0409 4.22444 19.3276C4.63493 19.6152 5.25205 19.8414 5.99064 20.0257C6.02877 20.6936 6.31451 21.3234 6.79206 21.7919C7.15558 21.3615 7.4031 20.8453 7.5111 20.2924C8.1031 20.3696 8.69988 20.4042 9.29684 20.3957C9.7897 20.3957 10.3035 20.3538 10.7559 20.3133C10.8474 20.8738 11.1131 21.3911 11.5154 21.7919C11.9013 21.3005 12.162 20.7226 12.2749 20.1081C13.1587 19.9224 13.8764 19.6557 14.3287 19.3472C20.3659 16.0619 18.4769 6.36249 16.6702 3.53518" fill="white"/>
<path d="M5.19038 8.09379C5.34495 8.08905 5.49152 8.02403 5.59876 7.91261C5.706 7.8012 5.76539 7.65225 5.76422 7.49761C5.75752 7.32621 5.68382 7.16428 5.55898 7.04664L5.39562 6.94332C5.32987 6.91875 5.26054 6.90507 5.19038 6.90283C5.03744 6.91024 4.89321 6.97621 4.78759 7.08707C4.68196 7.19794 4.62305 7.34519 4.62305 7.49831C4.62305 7.65143 4.68196 7.79869 4.78759 7.90955C4.89321 8.02041 5.03744 8.08638 5.19038 8.09379Z" fill="white"/>
<path d="M5.20955 8.99723C4.82095 8.98771 4.45197 8.82454 4.18346 8.54346C3.91495 8.26239 3.76881 7.88634 3.77705 7.49771C3.77586 7.26369 3.82894 7.03258 3.93215 6.82254C4.03535 6.6125 4.18585 6.42926 4.37183 6.28721L3.07895 5.46484C2.68508 5.98759 2.47411 6.6254 2.47859 7.2799C2.47859 8.92184 3.77286 10.2566 5.35336 10.2566C5.90418 10.251 6.44208 10.0891 6.90452 9.78975C7.36696 9.49044 7.73493 9.06601 7.96565 8.5658L6.63089 7.72808C6.58625 8.07522 6.41798 8.39462 6.15691 8.62773C5.89585 8.86084 5.5595 8.99203 5.20955 8.99723Z" fill="white"/>
<path d="M13.4865 8.09379C13.6395 8.08638 13.7837 8.02041 13.8893 7.90955C13.9949 7.79869 14.0539 7.65143 14.0539 7.49831C14.0539 7.34519 13.9949 7.19794 13.8893 7.08707C13.7837 6.97621 13.6395 6.91024 13.4865 6.90283C13.4163 6.90479 13.347 6.91848 13.2813 6.94332L13.1165 7.04664C13.0264 7.12536 12.962 7.22931 12.9317 7.34503C12.9013 7.46076 12.9064 7.58294 12.9462 7.69575C12.9861 7.80856 13.0589 7.9068 13.1552 7.97777C13.2516 8.04874 13.367 8.08915 13.4865 8.09379Z" fill="white"/>
<path d="M15.6244 5.48579L14.3301 6.30257C14.518 6.44333 14.6699 6.62648 14.7735 6.83708C14.8771 7.04768 14.9294 7.27979 14.9263 7.51447C14.9449 7.88529 14.8189 8.24885 14.5749 8.52866C14.3308 8.80847 13.9878 8.98271 13.6179 9.01472C13.248 9.04674 12.8801 8.93403 12.5916 8.70031C12.3031 8.4666 12.1165 8.13009 12.0711 7.7616L10.7363 8.59932C10.9712 9.09495 11.3398 9.51516 11.8006 9.81265C12.2614 10.1101 12.7961 10.2731 13.3444 10.2831C14.9263 10.2831 16.2192 8.94837 16.2192 7.30504C16.2265 6.64713 16.0175 6.00503 15.6244 5.47742" fill="white"/>
<path d="M33.3853 21.7919V20.4912C32.8752 21.4479 31.6424 22 30.3504 22C27.694 22 25.334 19.8957 25.334 16.6223C25.334 13.2838 27.694 11.1796 30.3504 11.1796C31.6511 11.1796 32.881 11.7114 33.3853 12.6682V5.75854H36.4463V21.7702H33.3853V21.7919ZM30.9198 14.0961C29.6017 14.0961 28.5164 15.0745 28.5164 16.5616C28.5164 18.0921 29.6017 19.0705 30.9198 19.0705C32.2205 19.0705 33.3217 18.0502 33.3217 16.5616C33.3217 15.008 32.1974 14.0961 30.9198 14.0961Z" fill="white"/>
<path d="M46.1858 20.39C45.5268 21.3886 43.9746 21.7716 43.1667 21.7716C40.5306 21.7716 37.8945 19.7093 37.8945 16.3723C37.8945 13.0352 40.5306 10.9729 43.1667 10.9729C43.8257 10.9729 45.3779 11.1853 46.1858 12.3545V11.207H49.2468V21.5809H46.1858V20.39ZM43.6769 18.8378C44.9516 18.8378 46.1858 17.9244 46.1858 16.3723C46.1858 14.8201 44.9516 13.9067 43.6769 13.9067C42.4022 13.9067 41.0827 14.8851 41.0827 16.3723C41.0827 17.8594 42.4007 18.8378 43.6769 18.8378Z" fill="white"/>
<path d="M54.6178 21.7917H51.5352V11.4179H54.6178V13.9268C55.1497 11.9916 56.4879 11.2054 57.5516 11.2054C58.2742 11.2054 58.3595 11.35 58.3595 11.35L57.806 14.1132C57.806 14.1132 57.6788 14.028 57.1903 14.028C55.404 14.028 54.6178 15.4313 54.6178 18.1526V21.7874V21.7917Z" fill="white"/>
<path d="M72.4335 21.6849H69.861L67.8204 15.0961L65.865 21.6849H63.2925L59.5508 11.311H62.8459L64.6958 17.4764L66.524 11.311H69.1601L70.9883 17.4764L72.8367 11.311H76.1347L72.4335 21.6849Z" fill="white"/>
<path d="M78.8297 5.64893C79.8717 5.64893 80.7215 6.43513 80.7215 7.45546C80.7181 7.69995 80.6664 7.94137 80.5693 8.1658C80.4723 8.39024 80.3318 8.59326 80.156 8.76318C79.9801 8.9331 79.7724 9.06657 79.5448 9.15589C79.3172 9.24522 79.0742 9.28865 78.8297 9.28367C77.7877 9.28367 76.8945 8.47723 76.8945 7.45546C76.8945 6.43368 77.766 5.64893 78.8297 5.64893ZM80.3602 21.6562H77.2992V11.2824H80.3602V21.6562Z" fill="white"/>
<path d="M85.8053 21.6057H82.7227V11.2319H85.8053V12.7421C86.3574 11.7001 87.5902 11.0194 88.8027 11.0194C91.1411 11.0194 92.608 12.4646 92.608 15.4201V21.6057H89.5253V16.0791C89.5253 14.6975 88.781 14.0168 87.7188 14.0168C86.6334 14.0168 85.8053 14.5486 85.8053 16.1225V21.6057Z" fill="white"/>
<path d="M104.573 19.6184C103.531 21.1705 101.598 21.7226 99.8546 21.7226C96.8775 21.7226 94.4336 19.5548 94.4336 16.2814C94.4336 13.0079 96.8775 10.9022 99.8546 10.9022C102.809 10.9022 105.169 13.0932 105.169 16.3666C105.169 16.6427 105.147 17.0459 105.127 17.3234H97.5365C97.681 18.5128 99.0034 19.0446 100.087 19.0446C100.939 19.0446 101.832 18.7252 102.342 18.0662L104.573 19.6184ZM102.044 15.4099C101.9 14.1337 100.726 13.6236 99.8763 13.6236C99.0265 13.6236 97.8356 14.0918 97.5639 15.4099H102.044Z" fill="white"/>
<path d="M105.991 11.2072H109.583L111.135 13.5022L112.666 11.2072H116.237L112.814 15.9475L116.875 21.5593H113.304L111.109 18.3928L108.898 21.5593H105.328L109.409 15.9475L105.991 11.2072Z" fill="white"/>
</svg>
